<svg version="1.1" id="Layer_1" xmlns="http://www.w3.org/2000/svg" xmlns:xlink="http://www.w3.org/1999/xlink" x="0px"
  y="0px" viewBox="0 0 1790.18 463.17" style="enable-background:new 0 0 1790.18 463.17;" xml:space="preserve">
  <style type="text/css">
    .st0 {
      fill: #03CB83;
    }

    .st1 {
      fill: #110E22;
    }
  </style>
  <g>
    <path class="st0" d="M377.8,260.57v4.6c0,66.14-53.71,120.05-119.95,120.05H37.71l67.8-67.9l48.04,0.1l-33.56,33.66h137.85
		c47.35,0,85.9-38.55,85.9-85.8v-4.6c0-9.49-6.85-23.19-11.94-30.62c-0.1,0-0.1,0-0.2-0.1c-3.33-2.74-17.32-13.89-30.72-19.37
		l23.87-14.97h0.1c9.1-7.04,18.88-22.41,18.88-35.03v-4.5c0-47.35-38.55-85.9-85.9-85.9H118.53l32.97,33.56h-48.23L38.98,36.13
		h218.77c66.14,0,119.95,53.81,119.95,119.95v4.5c0.1,18.2-8.22,35.81-18.69,48.72c3.82,5.38,6.85,10.76,8.41,13.89
		C371.24,230.83,377.8,245.9,377.8,260.57z" />
    <path class="st0" d="M32.82,266.31v26.04h215.7c12.85,0,23.24-10.39,23.24-23.24v-2.92H32.82V266.31z" />
    <path class="st0" d="M248.41,126.98H32.82v93.54h87.82v11.68H32.82v13.66h238.83v-95.65C271.65,137.38,261.26,126.98,248.41,126.98
		z" />
    <g>
      <path class="st1" d="M449.97,342.74V80.22h103.35c46.45,0,69.67,18.67,69.67,56.01v27.14c0,20.02-9.69,34.19-29.06,42.53
			c25.41,5.52,38.11,21.69,38.11,48.5v28.1c0,40.16-23.93,60.24-71.79,60.24H449.97z M573.34,142.58c0-14.24-8.66-21.36-25.98-21.36
			h-47.73v68.9h47.35c17.58,0,26.37-8.15,26.37-24.44V142.58z M582.38,256.32c0-17.58-9.18-26.37-27.52-26.37h-55.24v71.79h50.81
			c21.3,0,31.95-8.53,31.95-25.6V256.32z" />
      <path class="st1" d="M774.65,342.74l-25.6,77.56h-45.61l23.87-77.56h-16.94l-60.63-191.88h49.27l43.69,145.69l44.27-145.69h49.27
			L774.65,342.74z" />
      <path class="st1" d="M965.57,339.27c-11.81,4.88-25.86,7.31-42.15,7.31c-35.16,0-52.73-16.94-52.73-50.81V188.96h-28.87v-38.11
			h28.87v-47.73l47.92-6.74v54.47h49.27l-3.08,38.11h-46.19v100.66c0,11.29,5.77,16.94,17.32,16.94c6.93,0,14.95-1.35,24.06-4.04
			L965.57,339.27z" />
      <path class="st1" d="M1042.94,274.99c0,21.55,12.44,32.33,37.34,32.33c19.25,0,38.88-3.01,58.89-9.05l7.31,36.18
			c-21.3,8.08-44.78,12.12-70.44,12.12c-29,0-50.11-6.54-63.32-19.63c-11.93-12.06-17.9-30.22-17.9-54.47v-50.81
			c0-22.58,5.58-40.09,16.74-52.54c13.21-14.88,34.19-22.33,62.93-22.33c28.35,0,48.56,7.7,60.63,23.1
			c9.75,12.32,14.63,30.41,14.63,54.27v40.99h-106.82V274.99z M1042.94,226.49h61.01v-9.43c0-20.53-9.69-30.79-29.06-30.79
			c-21.3,0-31.95,10.27-31.95,30.79V226.49z" />
      <path class="st1" d="M1355.89,278.84c0,45.17-21.17,67.75-63.51,67.75c-16.68,0-33.75-1.8-51.2-5.39v79.1l-48.12,6.74V150.85h38.3
			l4.62,16.17c18.6-13.47,38.88-20.21,60.82-20.21c39.39,0,59.09,22.2,59.09,66.59V278.84z M1241.18,300.59
			c15.65,3.34,29.83,5,42.53,5c16.04,0,24.06-8.53,24.06-25.6v-67.75c0-16.29-7.89-24.44-23.67-24.44
			c-16.17,0-30.47,5.77-42.92,17.32V300.59z" />
      <path class="st1" d="M1545.27,342.74h-39.45l-3.46-13.09c-17.2,11.29-36.25,16.94-57.16,16.94c-16.81,0-29.51-5.32-38.11-15.97
			c-7.96-10.01-11.93-23.67-11.93-40.99c0-36.05,18.67-54.08,56.01-54.08h46v-20.21c0-11.03-2.25-18.48-6.74-22.33
			c-5-4.23-14.95-6.35-29.83-6.35c-16.68,0-34.45,1.99-53.31,5.97l-5.77-36.76c19.89-6.03,41.83-9.05,65.82-9.05
			c29.38,0,49.91,5.58,61.59,16.74c10.9,10.27,16.36,27.84,16.36,52.73V342.74z M1497.15,270.18h-35.41
			c-13.35,0-20.02,6.29-20.02,18.86c0,12.96,6.41,19.44,19.25,19.44c12.57,0,24.64-3.27,36.18-9.82V270.18z" />
      <path class="st1" d="M1695.77,342.74l-25.6,77.56h-45.61l23.87-77.56h-16.94l-60.63-191.88h49.27l43.69,145.69l44.27-145.69h49.27
			L1695.77,342.74z" />
    </g>
  </g>
</svg>