<?xml version="1.0" encoding="utf-8"?>
<!-- Generator: Adobe Illustrator 27.8.1, SVG Export Plug-In . SVG Version: 6.00 Build 0)  -->
<svg version="1.1" id="Layer_1" xmlns="http://www.w3.org/2000/svg" xmlns:xlink="http://www.w3.org/1999/xlink" x="0px" y="0px"
	 viewBox="0 0 2251.3 463.2" style="enable-background:new 0 0 2251.3 463.2;" xml:space="preserve">
<style type="text/css">
	.st0{fill:#03CB83;}
	.st1{enable-background:new    ;}
	.st2{fill:#110E22;}
</style>
<g>
	<path class="st0" d="M377.8,260.6v4.6c0,66.1-53.7,120.1-120,120.1H37.7l67.8-67.9l48,0.1L120,351.1h137.9
		c47.4,0,85.9-38.5,85.9-85.8v-4.6c0-9.5-6.9-23.2-11.9-30.6c-0.1,0-0.1,0-0.2-0.1c-3.3-2.7-17.3-13.9-30.7-19.4l23.9-15h0.1
		c9.1-7,18.9-22.4,18.9-35v-4.5c0-47.3-38.5-85.9-85.9-85.9H118.5l33,33.6h-48.2L39,36.1h218.8c66.1,0,120,53.8,120,119.9v4.5
		c0.1,18.2-8.2,35.8-18.7,48.7c3.8,5.4,6.9,10.8,8.4,13.9C371.2,230.8,377.8,245.9,377.8,260.6z"/>
	<path class="st0" d="M32.8,266.3v26h215.7c12.9,0,23.2-10.4,23.2-23.2v-2.9H32.8V266.3z"/>
	<path class="st0" d="M248.4,127H32.8v93.5h87.8v11.7H32.8v13.7h238.8v-95.6C271.6,137.4,261.3,127,248.4,127z"/>
	<g>
		<g>
			<g class="st1">
				<path class="st2" d="M1935.9,352.5h-60l89.6-229.2h-110.4V72.5h172v48.8L1935.9,352.5z"/>
				<path class="st2" d="M2131.8,352.5h-60l89.6-229.2H2051V72.5h172v48.8L2131.8,352.5z"/>
			</g>
		</g>
		<g>
			<g class="st1">
				<path class="st2" d="M640.4,286.9c0,16.4-6.4,31.6-19.2,45.2c-12.4,13.6-32,20.4-58.8,20.4H448v-280h107.2
					c54.8,0,76.8,25.6,76.8,62.8v19.6c0,27.2-12,44.8-36,52.8c29.6,7.6,44.4,26,44.4,54.8L640.4,286.9L640.4,286.9z M509.2,186.5h32
					c22.4,0,29.6-14.4,29.6-27.6v-14.4c0-12.4-8-23.6-30.8-23.6h-30.8V186.5z M509.2,302.1h37.6c22.8,0,32.4-13.2,32.4-28.8v-9.2
					c0-18.8-10.8-28.4-32.4-28.4h-37.6V302.1z"/>
				<path class="st2" d="M829.2,344.1c-20.8,8.4-43.6,12.4-68.4,12.4c-51.2,0-84.4-22-84.4-69.6v-67.6c0-46,32.4-70.8,82.4-70.8
					s82.4,24.8,82.4,70.8v54H735.6v12c0,14.8,10.4,22,30.8,22c7.6,0,17.2-1.2,28-3.2s18.8-4.4,23.6-6.4L829.2,344.1z M735.6,232.5
					H782v-10.8c0-15.6-7.6-23.2-23.2-23.2c-15.6,0-23.2,7.6-23.2,23.2V232.5L735.6,232.5z"/>
				<path class="st2" d="M1005.2,207.3c-22-6.4-38-9.6-48.8-9.6c-10,0-14.8,4.4-14.8,12.8c0,5.2,0,5.6,2,8.8s7.2,5.2,16.8,8.4
					c24.8,8.8,41.2,17.6,48.8,26s11.6,22,11.6,41.2c0,25.6-12,61.6-69.6,61.6c-11.2,0-24-1.2-38.8-4c-14.8-2.4-25.6-5.2-33.2-8.4
					l11.6-47.2c20,6.8,38,10,54.4,10c11.2,0,16.8-4,16.8-12c0-6.4,0.4-6.8-2.4-10.4c-2-3.6-7.2-6-18-9.6c-12.8-4.4-22-7.6-28-10.4
					c-5.6-2.8-11.2-6.4-17.2-11.2c-11.2-9.6-14-21.6-14-42.8c0-18,2.4-29.6,10.8-42.4c9.2-12.8,28-19.6,57.2-19.6
					c23.6,0,46,3.6,67.2,11.2L1005.2,207.3z"/>
				<path class="st2" d="M1042.8,152.5h31.2v-46.8l59.2-8v54.8h48v49.6h-48v82.4c0,13.6,7.6,20.4,22.8,20.4c6.8,0,16.4-1.2,28.4-3.6
					l5.2,48.4c-19.2,4.4-35.6,6.8-49.2,6.8c-44.8,0-66.4-26.8-66.4-60.8v-93.6h-31.2V152.5z"/>
				<path class="st2" d="M1401.6,293.7c-1.6,42-32,62.8-91.2,62.8c-25.6,0-54-3.2-84.8-10v-274h59.2v86.8
					c15.6-7.2,33.6-10.8,54.4-10.8c41.6,0,62.4,21.2,62.4,64V293.7L1401.6,293.7z M1342.4,220.1c0-12.4-7.2-18.8-21.2-18.8
					c-5.2,0-11.6,0.8-19.6,2.8s-13.6,3.6-16.8,5.2v94.4c10,1.6,18.4,2.4,25.2,2.4c21.6,0,32.4-8.8,32.4-26.4L1342.4,220.1
					L1342.4,220.1z"/>
				<path class="st2" d="M1506.8,152.5v132c0,12.4,6.4,18.4,19.6,18.4s26-4.4,38-13.6V152.5h59.2v200h-44l-6-18.4
					c-21.6,14.4-43.6,21.6-66.4,21.6c-39.6,0-59.6-21.2-59.6-64V152.5H1506.8z"/>
				<path class="st2" d="M1768,432.5h-58l26.4-80h-18l-64.8-200h62.4l40,143.2l40.4-143.2h62.4L1768,432.5z"/>
			</g>
		</g>
	</g>
</g>
</svg>
