<?xml version="1.0" encoding="utf-8"?>
<!-- Generator: Adobe Illustrator 27.6.1, SVG Export Plug-In . SVG Version: 6.00 Build 0)  -->
<svg version="1.1" id="Layer_1" xmlns="http://www.w3.org/2000/svg" xmlns:xlink="http://www.w3.org/1999/xlink" x="0px" y="0px"
	 viewBox="0 0 1790.2 463.2" style="enable-background:new 0 0 1790.2 463.2;" xml:space="preserve">
<style type="text/css">
	.st0{enable-background:new    ;}
	.st1{fill:#03CB83;}
	.st2{fill:#110E22;}
</style>
<g>
	<g class="st0">
		<path class="st1" d="M1495.2,349.6h-60l89.6-229.2h-110.4V69.6h172v48.8L1495.2,349.6z"/>
		<path class="st1" d="M1691.1,349.6h-60l89.6-229.2h-110.4V69.6h172v48.8L1691.1,349.6z"/>
	</g>
</g>
<g>
	<g class="st0">
		<path class="st2" d="M199.7,284c0,16.4-6.4,31.6-19.2,45.2c-12.4,13.6-32,20.4-58.8,20.4H7.3v-280h107.2
			c54.8,0,76.8,25.6,76.8,62.8V152c0,27.2-12,44.8-36,52.8c29.6,7.6,44.4,26,44.4,54.8V284z M68.5,183.6h32
			c22.4,0,29.6-14.4,29.6-27.6v-14.4c0-12.4-8-23.6-30.8-23.6H68.5V183.6z M68.5,299.2h37.6c22.8,0,32.4-13.2,32.4-28.8v-9.2
			c0-18.8-10.8-28.4-32.4-28.4H68.5V299.2z"/>
		<path class="st2" d="M388.5,341.2c-20.8,8.4-43.6,12.4-68.4,12.4c-51.2,0-84.4-22-84.4-69.6v-67.6c0-46,32.4-70.8,82.4-70.8
			s82.4,24.8,82.4,70.8v54H294.9v12c0,14.8,10.4,22,30.8,22c7.6,0,17.2-1.2,28-3.2s18.8-4.4,23.6-6.4L388.5,341.2z M294.9,229.6
			h46.4v-10.8c0-15.6-7.6-23.2-23.2-23.2s-23.2,7.6-23.2,23.2V229.6z"/>
		<path class="st2" d="M564.5,204.4c-22-6.4-38-9.6-48.8-9.6c-10,0-14.8,4.4-14.8,12.8c0,5.2,0,5.6,2,8.8c2,3.2,7.2,5.2,16.8,8.4
			c24.8,8.8,41.2,17.6,48.8,26c7.6,8.4,11.6,22,11.6,41.2c0,25.6-12,61.6-69.6,61.6c-11.2,0-24-1.2-38.8-4
			c-14.8-2.4-25.6-5.2-33.2-8.4l11.6-47.2c20,6.8,38,10,54.4,10c11.2,0,16.8-4,16.8-12c0-6.4,0.4-6.8-2.4-10.4c-2-3.6-7.2-6-18-9.6
			c-12.8-4.4-22-7.6-28-10.4c-5.6-2.8-11.2-6.4-17.2-11.2c-11.2-9.6-14-21.6-14-42.8c0-18,2.4-29.6,10.8-42.4
			c9.2-12.8,28-19.6,57.2-19.6c23.6,0,46,3.6,67.2,11.2L564.5,204.4z"/>
		<path class="st2" d="M602.1,149.6h31.2v-46.8l59.2-8v54.8h48v49.6h-48v82.4c0,13.6,7.6,20.4,22.8,20.4c6.8,0,16.4-1.2,28.4-3.6
			l5.2,48.4c-19.2,4.4-35.6,6.8-49.2,6.8c-44.8,0-66.4-26.8-66.4-60.8v-93.6h-31.2V149.6z"/>
		<path class="st2" d="M960.9,290.8c-1.6,42-32,62.8-91.2,62.8c-25.6,0-54-3.2-84.8-10v-274h59.2v86.8c15.6-7.2,33.6-10.8,54.4-10.8
			c41.6,0,62.4,21.2,62.4,64V290.8z M901.7,217.2c0-12.4-7.2-18.8-21.2-18.8c-5.2,0-11.6,0.8-19.6,2.8c-8,2-13.6,3.6-16.8,5.2v94.4
			c10,1.6,18.4,2.4,25.2,2.4c21.6,0,32.4-8.8,32.4-26.4V217.2z"/>
		<path class="st2" d="M1066.1,149.6v132c0,12.4,6.4,18.4,19.6,18.4c13.2,0,26-4.4,38-13.6V149.6h59.2v200h-44l-6-18.4
			c-21.6,14.4-43.6,21.6-66.4,21.6c-39.6,0-59.6-21.2-59.6-64V149.6H1066.1z"/>
		<path class="st2" d="M1327.3,429.6h-58l26.4-80h-18l-64.8-200h62.4l40,143.2l40.4-143.2h62.4L1327.3,429.6z"/>
	</g>
</g>
</svg>
